<svg class="weather-icon" viewBox="0 0 48 48" fill="none" xmlns="http://www.w3.org/2000/svg">
  <defs>
    <linearGradient id="sunGradient" x1="33.9018" y1="2.19555" x2="33.9018" y2="26" gradientUnits="userSpaceOnUse">
      <stop stop-color="#FA6C21"/>
      <stop offset="1" stop-color="#FFD358"/>
    </linearGradient>
    <linearGradient id="cloudGradient" x1="2" y1="11" x2="2" y2="43" gradientUnits="userSpaceOnUse">
      <stop stop-color="#8FD5FF"/>
      <stop offset="1" stop-color="#4CAFFF"/>
    </linearGradient>
  </defs>
  
  <!-- Затемнене сонце за хмарою -->
  <path fill-rule="evenodd" clip-rule="evenodd" 
    d="M31.6118 2.23806C33.4153 1.8735 34.7127 3.93243 33.6053 5.402C32.7724 6.50743 32.3158 7.84812 32.3158 9.26316C32.3158 12.8094 35.1906 15.6842 38.7368 15.6842C40.1518 15.6842 41.4921 15.2277 42.5969 14.395C44.0663 13.2875 46.1254 14.5845 45.7611 16.3881C44.6389 21.9449 39.737 26 34 26C27.3726 26 22 20.6274 22 14C22 8.26319 26.0548 3.3613 31.6118 2.23806Z" 
    fill="url(#sunGradient)"/>
  
  <!-- Хмара -->
  <path fill-rule="evenodd" clip-rule="evenodd" 
    d="M18 11C24.4857 11 30.1894 14.8902 32.6787 20.6214L32.8113 20.9358L32.915 21.198L33.2899 21.1325C33.5707 21.0886 33.8539 21.0554 34.1391 21.0333L34.5683 21.0083L35 21C41.0751 21 46 25.9249 46 32C46 37.8569 41.4161 42.6634 35.5868 42.9837L35.2943 42.996L35 43H17C16.8993 43 16.8004 42.9926 16.7037 42.9782L16.5604 42.9515L16.468 42.927L16.2043 42.9002C8.39416 42.0282 2.33983 35.5591 2.01382 27.6702L2.00337 27.3313L2 27C2 18.1634 9.16344 11 18 11Z" 
    fill="url(#cloudGradient)"/>
</svg>