<svg width="21" height="20" viewBox="0 0 21 20" fill="none" xmlns="http://www.w3.org/2000/svg">
<path d="M8.34738 0.5C6.79531 0.5 5.2781 0.949411 3.98761 1.7914C2.69712 2.63339 1.6913 3.83015 1.09735 5.23033C0.5034 6.63051 0.347996 8.17123 0.650789 9.65765C0.953581 11.1441 1.70097 12.5094 2.79845 13.5811C3.89592 14.6527 5.29419 15.3825 6.81643 15.6782C8.33867 15.9739 9.91652 15.8221 11.3504 15.2422C12.7844 14.6622 14.0099 13.68 14.8722 12.4199C15.7345 11.1598 16.1947 9.67827 16.1947 8.16273C16.1946 6.13048 15.3678 4.18152 13.8962 2.7445C12.4245 1.30749 10.4286 0.500129 8.34738 0.5Z" stroke="#525A7A" stroke-miterlimit="10"/>
<path d="M14.2021 13.8797L19.6826 19.2312" stroke="#525A7A" stroke-miterlimit="10" stroke-linecap="round"/>
</svg>
