<svg width="134" height="135" viewBox="0 0 134 135" fill="none" xmlns="http://www.w3.org/2000/svg">
<g filter="url(#filter0_i_6_1912)">
<path fill-rule="evenodd" clip-rule="evenodd" d="M75.375 25.3125C93.8765 25.3125 108.875 40.4229 108.875 59.0625C108.875 77.7021 93.8765 92.8125 75.375 92.8125C56.8735 92.8125 41.875 77.7021 41.875 59.0625C41.875 40.4229 56.8735 25.3125 75.375 25.3125ZM114.431 75.2849L119.267 78.0974C121.937 79.6507 122.852 83.0909 121.31 85.7813C119.769 88.4716 116.354 89.3934 113.683 87.8401L108.848 85.0276C106.178 83.4743 105.263 80.0341 106.805 77.3438C108.346 74.6534 111.761 73.7316 114.431 75.2849ZM126.609 45.2319C127.407 48.2326 125.64 51.317 122.661 52.121L117.268 53.5769C114.29 54.381 111.228 52.6002 110.43 49.5994C109.632 46.5987 111.4 43.5143 114.378 42.7102L119.771 41.2544C122.75 40.4503 125.811 42.2311 126.609 45.2319ZM37.0665 30.2849L41.9019 33.0974C44.5723 34.6507 45.4873 38.0909 43.9455 40.7813C42.4037 43.4716 38.989 44.3934 36.3185 42.8401L31.4832 40.0276C28.8127 38.4743 27.8978 35.0341 29.4396 32.3438C30.9814 29.6534 34.3961 28.7316 37.0665 30.2849ZM101.896 12.7843C104.566 14.3376 105.481 17.7778 103.939 20.4682L101.148 25.3396C99.606 28.03 96.1913 28.9517 93.5208 27.3984C90.8504 25.8451 89.9354 22.405 91.4772 19.7146L94.2689 14.8432C95.8106 12.1528 99.2254 11.231 101.896 12.7843ZM68.485 11.4233L69.93 16.8566C70.7281 19.8574 68.9605 22.9418 65.982 23.7458C63.0035 24.5499 59.942 22.7691 59.1439 19.7684L57.6988 14.335C56.9007 11.3343 58.6683 8.24989 61.6468 7.44584C64.6253 6.64179 67.6869 8.42257 68.485 11.4233Z" fill="url(#paint0_linear_6_1912)"/>
</g>
<g filter="url(#filter1_i_6_1912)">
<path fill-rule="evenodd" clip-rule="evenodd" d="M43.2708 50.625C57.4209 50.625 69.8636 59.1782 75.2902 71.7786L75.3694 71.9747L75.6921 71.9252C76.389 71.8338 77.092 71.7725 77.7997 71.7418L78.8646 71.7188C92.3553 71.7188 103.292 82.7367 103.292 96.3281C103.292 109.92 92.3553 120.938 78.8646 120.938H41.1771C40.7522 120.938 40.3384 120.89 39.9409 120.799L39.8203 120.766L39.0905 120.687C21.9851 118.63 8.80605 104.164 8.38536 86.6452L8.375 85.7812C8.375 66.365 23.9984 50.625 43.2708 50.625Z" fill="url(#paint1_linear_6_1912)"/>
</g>
<defs>
<filter id="filter0_i_6_1912" x="28.6906" y="7.25278" width="98.1103" height="87.5597" filterUnits="userSpaceOnUse" color-interpolation-filters="sRGB">
<feFlood flood-opacity="0" result="BackgroundImageFix"/>
<feBlend mode="normal" in="SourceGraphic" in2="BackgroundImageFix" result="shape"/>
<feColorMatrix in="SourceAlpha" type="matrix" values="0 0 0 0 0 0 0 0 0 0 0 0 0 0 0 0 0 0 127 0" result="hardAlpha"/>
<feOffset dy="2"/>
<feGaussianBlur stdDeviation="4"/>
<feComposite in2="hardAlpha" operator="arithmetic" k2="-1" k3="1"/>
<feColorMatrix type="matrix" values="0 0 0 0 1 0 0 0 0 1 0 0 0 0 1 0 0 0 1 0"/>
<feBlend mode="overlay" in2="shape" result="effect1_innerShadow_6_1912"/>
</filter>
<filter id="filter1_i_6_1912" x="8.375" y="50.625" width="94.9167" height="72.3125" filterUnits="userSpaceOnUse" color-interpolation-filters="sRGB">
<feFlood flood-opacity="0" result="BackgroundImageFix"/>
<feBlend mode="normal" in="SourceGraphic" in2="BackgroundImageFix" result="shape"/>
<feColorMatrix in="SourceAlpha" type="matrix" values="0 0 0 0 0 0 0 0 0 0 0 0 0 0 0 0 0 0 127 0" result="hardAlpha"/>
<feOffset dy="2"/>
<feGaussianBlur stdDeviation="4"/>
<feComposite in2="hardAlpha" operator="arithmetic" k2="-1" k3="1"/>
<feColorMatrix type="matrix" values="0 0 0 0 0.831313 0 0 0 0 0.98288 0 0 0 0 0.98288 0 0 0 1 0"/>
<feBlend mode="normal" in2="shape" result="effect1_innerShadow_6_1912"/>
</filter>
<linearGradient id="paint0_linear_6_1912" x1="77.7458" y1="7.25278" x2="77.7458" y2="92.8125" gradientUnits="userSpaceOnUse">
<stop stop-color="#FA6C21"/>
<stop offset="1" stop-color="#FFD358"/>
</linearGradient>
<linearGradient id="paint1_linear_6_1912" x1="8.375" y1="50.625" x2="8.375" y2="120.938" gradientUnits="userSpaceOnUse">
<stop stop-color="#8FD5FF"/>
<stop offset="1" stop-color="#4CAFFF"/>
</linearGradient>
</defs>
</svg>
