<svg width="15" height="15" viewBox="0 0 15 15" fill="none" xmlns="http://www.w3.org/2000/svg">
<g filter="url(#filter0_i_6_1943)">
<path fill-rule="evenodd" clip-rule="evenodd" d="M7.5 12.5C7.82949 12.5 8.09943 12.755 8.12329 13.0784L8.125 13.125V13.75C8.125 14.0952 7.84518 14.375 7.5 14.375C7.17051 14.375 6.90057 14.12 6.87671 13.7966L6.875 13.75V13.125C6.875 12.7798 7.15482 12.5 7.5 12.5ZM7.5 0.625C7.82949 0.625 8.09943 0.879962 8.12329 1.20336L8.125 1.25V1.875C8.125 2.22018 7.84518 2.5 7.5 2.5C7.17051 2.5 6.90057 2.24504 6.87671 1.92164L6.875 1.875V1.25C6.875 0.904822 7.15482 0.625 7.5 0.625ZM2.5 7.5C2.5 7.82949 2.24504 8.09943 1.92164 8.12329L1.875 8.125H1.25C0.904822 8.125 0.625 7.84518 0.625 7.5C0.625 7.17051 0.879962 6.90057 1.20336 6.87671L1.25 6.875H1.875C2.22018 6.875 2.5 7.15482 2.5 7.5ZM14.375 7.5C14.375 7.82949 14.12 8.09943 13.7966 8.12329L13.75 8.125H13.125C12.7798 8.125 12.5 7.84518 12.5 7.5C12.5 7.17051 12.755 6.90057 13.0784 6.87671L13.125 6.875H13.75C14.0952 6.875 14.375 7.15482 14.375 7.5ZM3.96447 3.96447C3.73148 4.19745 3.36032 4.20804 3.11478 3.99624L3.08058 3.96447L2.63864 3.52252C2.39456 3.27845 2.39456 2.88272 2.63864 2.63864C2.87162 2.40566 3.24278 2.39507 3.48833 2.60687L3.52252 2.63864L3.96447 3.08058C4.20854 3.32466 4.20854 3.72039 3.96447 3.96447ZM12.3614 12.3614C12.1284 12.5943 11.7572 12.6049 11.5117 12.3931L11.4775 12.3614L11.0355 11.9194C10.7915 11.6753 10.7915 11.2796 11.0355 11.0355C11.2685 10.8026 11.6397 10.792 11.8852 11.0038L11.9194 11.0355L12.3614 11.4775C12.6054 11.7216 12.6054 12.1173 12.3614 12.3614ZM3.96447 11.0355C4.19745 11.2685 4.20804 11.6397 3.99624 11.8852L3.96447 11.9194L3.52252 12.3614C3.27845 12.6054 2.88272 12.6054 2.63864 12.3614C2.40566 12.1284 2.39507 11.7572 2.60687 11.5117L2.63864 11.4775L3.08058 11.0355C3.32466 10.7915 3.72039 10.7915 3.96447 11.0355ZM12.3614 2.63864C12.5943 2.87162 12.6049 3.24278 12.3931 3.48833L12.3614 3.52252L11.9194 3.96447C11.6753 4.20854 11.2796 4.20854 11.0355 3.96447C10.8026 3.73148 10.792 3.36032 11.0038 3.11478L11.0355 3.08058L11.4775 2.63864C11.7216 2.39456 12.1173 2.39456 12.3614 2.63864ZM7.5 3.125C5.08376 3.125 3.125 5.08376 3.125 7.5C3.125 9.91624 5.08376 11.875 7.5 11.875C9.91624 11.875 11.875 9.91624 11.875 7.5C11.875 5.08376 9.91624 3.125 7.5 3.125Z" fill="url(#paint0_linear_6_1943)"/>
</g>
<defs>
<filter id="filter0_i_6_1943" x="0.625" y="0.625" width="13.75" height="15.75" filterUnits="userSpaceOnUse" color-interpolation-filters="sRGB">
<feFlood flood-opacity="0" result="BackgroundImageFix"/>
<feBlend mode="normal" in="SourceGraphic" in2="BackgroundImageFix" result="shape"/>
<feColorMatrix in="SourceAlpha" type="matrix" values="0 0 0 0 0 0 0 0 0 0 0 0 0 0 0 0 0 0 127 0" result="hardAlpha"/>
<feOffset dy="2"/>
<feGaussianBlur stdDeviation="4"/>
<feComposite in2="hardAlpha" operator="arithmetic" k2="-1" k3="1"/>
<feColorMatrix type="matrix" values="0 0 0 0 1 0 0 0 0 1 0 0 0 0 1 0 0 0 1 0"/>
<feBlend mode="overlay" in2="shape" result="effect1_innerShadow_6_1943"/>
</filter>
<linearGradient id="paint0_linear_6_1943" x1="7.5" y1="0.625" x2="7.5" y2="14.375" gradientUnits="userSpaceOnUse">
<stop stop-color="#FA6C21"/>
<stop offset="1" stop-color="#FFD358"/>
</linearGradient>
</defs>
</svg>
