<svg class="weather-icon" viewBox="0 0 48 48" fill="none" xmlns="http://www.w3.org/2000/svg">
  <defs>
    <linearGradient id="sunGradient" x1="35.4088" y1="2.1823" x2="35.4088" y2="25" gradientUnits="userSpaceOnUse">
      <stop stop-color="#FA6C21"/>
      <stop offset="1" stop-color="#FFD358"/>
    </linearGradient>
    <linearGradient id="cloudGradient" x1="2" y1="9" x2="2" y2="41" gradientUnits="userSpaceOnUse">
      <stop stop-color="#8FD5FF"/>
      <stop offset="1" stop-color="#4CAFFF"/>
    </linearGradient>
    <linearGradient id="dropGradient" x1="13" y1="37" x2="13" y2="46" gradientUnits="userSpaceOnUse">
      <stop stop-color="#D6F0FF"/>
      <stop offset="1" stop-color="#A2D5FF"/>
    </linearGradient>
  </defs>
  
  <path fill-rule="evenodd" clip-rule="evenodd" 
    d="M33 7C37.9706 7 42 11.0294 42 16C42 20.9706 37.9706 25 33 25C28.0294 25 24 20.9706 24 16C24 11.0294 28.0294 7 33 7ZM44.8177 16.0838C45.9223 16.0838 46.8177 16.9792 46.8177 18.0838C46.8177 19.1883 45.9223 20.0838 44.8177 20.0838C43.7131 20.0838 42.8177 19.1883 42.8177 18.0838C42.8177 16.9792 43.7131 16.0838 44.8177 16.0838ZM42.8298 7.11708C43.9344 7.11708 44.8298 8.01251 44.8298 9.11708C44.8298 10.2216 43.9344 11.1171 42.8298 11.1171C41.7253 11.1171 40.8298 10.2216 40.8298 9.11708C40.8298 8.01251 41.7253 7.11708 42.8298 7.11708ZM26.1171 4.17017C27.2217 4.17017 28.1171 5.0656 28.1171 6.17017C28.1171 7.27474 27.2217 8.17017 26.1171 8.17017C25.0125 8.17017 24.1171 7.27474 24.1171 6.17017C24.1171 5.0656 25.0125 4.17017 26.1171 4.17017ZM35.0838 2.1823C36.1883 2.1823 37.0838 3.07773 37.0838 4.1823C37.0838 5.28687 36.1883 6.1823 35.0838 6.1823C33.9792 6.1823 33.0838 5.28687 33.0838 4.1823C33.0838 3.07773 33.9792 2.1823 35.0838 2.1823Z" 
    fill="url(#sunGradient)"/>
  
  <path fill-rule="evenodd" clip-rule="evenodd" 
    d="M18 9C9.16344 9 2 16.1634 2 25L2.00337 25.3313C2.16721 33.3732 8.28258 40.0157 16.2043 40.9002L16.468 40.927L16.5604 40.9515C16.7019 40.9833 16.849 41 17 41H35L35.2943 40.996C41.262 40.8234 46 35.9545 46 30C46 23.9249 41.0751 19 35 19L34.5683 19.0083C34.1378 19.025 33.7111 19.0666 33.2899 19.1325L32.915 19.198L32.8113 18.9358C30.3965 13.033 24.6037 9 18 9Z" 
    fill="url(#cloudGradient)"/>
  
  <path fill-rule="evenodd" clip-rule="evenodd" 
    d="M15.1431 38.2572C15.5533 37.2317 16.7173 36.7328 17.7428 37.143C18.7196 37.5337 19.2185 38.6081 18.9095 39.5954L18.857 39.7428L16.857 44.7428C16.4468 45.7684 15.2828 46.2672 14.2573 45.857C13.2805 45.4663 12.7816 44.3919 13.0906 43.4046L13.1431 43.2572L15.1431 38.2572ZM24.1431 38.2572C24.5533 37.2317 25.7173 36.7328 26.7428 37.143C27.7196 37.5337 28.2185 38.6081 27.9095 39.5954L27.857 39.7428L25.857 44.7428C25.4468 45.7684 24.2828 46.2672 23.2573 45.857C22.2805 45.4663 21.7816 44.3919 22.0906 43.4046L22.1431 43.2572L24.1431 38.2572ZM33.1431 38.2572C33.5533 37.2317 34.7173 36.7328 35.7428 37.143C36.7196 37.5337 37.2185 38.6081 36.9095 39.5954L36.857 39.7428L34.857 44.7428C34.4468 45.7684 33.2828 46.2672 32.2573 45.857C31.2805 45.4663 30.7816 44.3919 31.0906 43.4046L31.1431 43.2572L33.1431 38.2572Z" 
    fill="url(#dropGradient)"/>
</svg>