<svg width="24" height="24" viewBox="0 0 24 24" fill="none" xmlns="http://www.w3.org/2000/svg">
<g filter="url(#filter0_i_5_1900)">
<path fill-rule="evenodd" clip-rule="evenodd" d="M12 20C12.5272 20 12.9591 20.4079 12.9973 20.9254L13 21V22C13 22.5523 12.5523 23 12 23C11.4728 23 11.0409 22.5921 11.0027 22.0746L11 22V21C11 20.4477 11.4477 20 12 20ZM12 1C12.5272 1 12.9591 1.40794 12.9973 1.92537L13 2V3C13 3.55228 12.5523 4 12 4C11.4728 4 11.0409 3.59206 11.0027 3.07463L11 3V2C11 1.44772 11.4477 1 12 1ZM4 12C4 12.5272 3.59206 12.9591 3.07463 12.9973L3 13H2C1.44772 13 1 12.5523 1 12C1 11.4728 1.40794 11.0409 1.92537 11.0027L2 11H3C3.55228 11 4 11.4477 4 12ZM23 12C23 12.5272 22.5921 12.9591 22.0746 12.9973L22 13H21C20.4477 13 20 12.5523 20 12C20 11.4728 20.4079 11.0409 20.9254 11.0027L21 11H22C22.5523 11 23 11.4477 23 12ZM6.34315 6.34315C5.97037 6.71592 5.37652 6.73286 4.98364 6.39398L4.92893 6.34315L4.22183 5.63604C3.8313 5.24551 3.8313 4.61235 4.22183 4.22183C4.5946 3.84905 5.18846 3.83211 5.58133 4.17099L5.63604 4.22183L6.34315 4.92893C6.73367 5.31946 6.73367 5.95262 6.34315 6.34315ZM19.7782 19.7782C19.4054 20.1509 18.8115 20.1679 18.4187 19.829L18.364 19.7782L17.6569 19.0711C17.2663 18.6805 17.2663 18.0474 17.6569 17.6569C18.0296 17.2841 18.6235 17.2671 19.0164 17.606L19.0711 17.6569L19.7782 18.364C20.1687 18.7545 20.1687 19.3877 19.7782 19.7782ZM6.34315 17.6569C6.71592 18.0296 6.73286 18.6235 6.39398 19.0164L6.34315 19.0711L5.63604 19.7782C5.24551 20.1687 4.61235 20.1687 4.22183 19.7782C3.84905 19.4054 3.83211 18.8115 4.17099 18.4187L4.22183 18.364L4.92893 17.6569C5.31946 17.2663 5.95262 17.2663 6.34315 17.6569ZM19.7782 4.22183C20.1509 4.5946 20.1679 5.18846 19.829 5.58133L19.7782 5.63604L19.0711 6.34315C18.6805 6.73367 18.0474 6.73367 17.6569 6.34315C17.2841 5.97037 17.2671 5.37652 17.606 4.98364L17.6569 4.92893L18.364 4.22183C18.7545 3.8313 19.3877 3.8313 19.7782 4.22183ZM12 5C8.13402 5 5 8.13402 5 12C5 15.866 8.13402 19 12 19C15.866 19 19 15.866 19 12C19 8.13402 15.866 5 12 5Z" fill="url(#paint0_linear_5_1900)"/>
</g>
<defs>
<filter id="filter0_i_5_1900" x="1" y="1" width="22" height="24" filterUnits="userSpaceOnUse" color-interpolation-filters="sRGB">
<feFlood flood-opacity="0" result="BackgroundImageFix"/>
<feBlend mode="normal" in="SourceGraphic" in2="BackgroundImageFix" result="shape"/>
<feColorMatrix in="SourceAlpha" type="matrix" values="0 0 0 0 0 0 0 0 0 0 0 0 0 0 0 0 0 0 127 0" result="hardAlpha"/>
<feOffset dy="2"/>
<feGaussianBlur stdDeviation="4"/>
<feComposite in2="hardAlpha" operator="arithmetic" k2="-1" k3="1"/>
<feColorMatrix type="matrix" values="0 0 0 0 1 0 0 0 0 1 0 0 0 0 1 0 0 0 1 0"/>
<feBlend mode="overlay" in2="shape" result="effect1_innerShadow_5_1900"/>
</filter>
<linearGradient id="paint0_linear_5_1900" x1="12" y1="1" x2="12" y2="23" gradientUnits="userSpaceOnUse">
<stop stop-color="#FFD358"/>
<stop offset="1" stop-color="#FA6C21"/>
</linearGradient>
</defs>
</svg>
